<svg xmlns="http://www.w3.org/2000/svg" viewBox="0 0 1440 400" preserveAspectRatio="none">
  <defs>
    <linearGradient id="mountainGrad1" x1="0%" y1="0%" x2="0%" y2="100%">
      <stop offset="0%" style="stop-color:#c9a84c;stop-opacity:0.15"/>
      <stop offset="100%" style="stop-color:#0a0a0f;stop-opacity:0.8"/>
    </linearGradient>
    <linearGradient id="mountainGrad2" x1="0%" y1="0%" x2="0%" y2="100%">
      <stop offset="0%" style="stop-color:#4a90a4;stop-opacity:0.1"/>
      <stop offset="100%" style="stop-color:#0a0a0f;stop-opacity:0.6"/>
    </linearGradient>
    <linearGradient id="mountainGrad3" x1="0%" y1="0%" x2="0%" y2="100%">
      <stop offset="0%" style="stop-color:#c9a84c;stop-opacity:0.08"/>
      <stop offset="100%" style="stop-color:#0a0a0f;stop-opacity:1"/>
    </linearGradient>
  </defs>
  <!-- Back range (farthest) -->
  <path d="M0,400 L0,280 L80,240 L160,260 L240,200 L320,220 L400,160 L480,180 L560,140 L640,170 L720,120 L800,150 L880,100 L960,130 L1040,90 L1120,140 L1200,110 L1280,160 L1360,130 L1440,180 L1440,400 Z" fill="url(#mountainGrad3)" opacity="0.5"/>
  <!-- Mid range -->
  <path d="M0,400 L0,320 L100,290 L200,310 L280,260 L360,280 L440,230 L520,250 L600,210 L680,240 L760,190 L840,220 L920,180 L1000,210 L1080,170 L1160,200 L1240,180 L1320,220 L1400,200 L1440,230 L1440,400 Z" fill="url(#mountainGrad2)" opacity="0.6"/>
  <!-- Front range (closest) -->
  <path d="M0,400 L0,350 L120,320 L240,340 L340,300 L440,320 L520,280 L600,300 L700,270 L800,290 L880,260 L960,280 L1060,250 L1140,270 L1220,250 L1300,280 L1380,260 L1440,290 L1440,400 Z" fill="url(#mountainGrad1)" opacity="0.7"/>
</svg>
